<svg xmlns="http://www.w3.org/2000/svg" version="1.1" id="SVGmap">
      <g id="masterGroup">
            <rect x="400" y="50" width="65" height="70" style="fill: none; stroke-width: 0.25; stroke: #559;"></rect>
            <g class="Hovedstaden" id="Albertslund" style="fill:red">
            <polygon id="p0" points="432.16,372.68 431.10,370.14 432.73,368.96 433.51,368.95 434.19,367.25 435.24,368.17 435.39,367.51 435.70,367.52 437.08,368.50 438.74,369.48 439.63,371.61 439.44,373.52 438.50,373.12 438.07,374.22 437.44,374.07 436.78,374.70 437.16,375.51 437.13,376.17 436.34,376.42 436.49,376.88 435.28,377.12 435.42,378.13 434.70,378.41 434.13,379.45 433.64,378.20 432.89,377.85 432.20,376.25 431.55,373.91 432.16,372.68 "></polygon>
            </g>
            <g class="Hovedstaden" id="Allerød">
            <polygon id="p1" points="432.61,348.76 429.60,347.40 426.16,348.07 423.83,347.62 420.74,345.99 421.00,345.18 421.59,344.72 421.80,344.08 422.55,343.99 422.88,343.28 422.98,343.34 423.13,342.75 423.43,341.39 426.27,341.25 426.19,340.54 427.86,339.33 427.96,337.20 427.47,336.19 429.98,335.75 430.19,335.48 430.87,336.39 431.56,336.48 431.85,336.05 431.14,335.25 431.06,334.39 432.16,334.68 435.45,333.69 436.09,334.41 436.79,333.70 437.31,333.15 438.17,333.61 438.90,333.59 439.76,335.33 440.24,335.36 440.34,336.69 439.81,337.05 442.67,338.87 441.69,339.76 441.28,341.98 440.87,342.47 440.20,341.91 439.97,342.61 440.19,343.38 439.66,343.45 439.49,343.55 439.28,343.87 436.84,341.73 436.11,342.03 435.49,344.17 434.35,345.35 431.44,346.60 432.61,348.76 "></polygon>
            </g>
           
            <g class="Hovedstaden" id="Ballerup">
            <polygon id="p6" points="432.33,365.88 432.06,363.86 432.41,363.13 433.36,362.87 433.19,361.66 433.12,361.36 431.64,361.68 431.37,360.25 430.62,359.89 428.82,359.72 426.91,360.56 426.35,360.42 426.97,359.57 426.70,358.87 427.49,358.24 429.18,358.64 430.00,357.58 431.26,358.20 433.34,358.23 433.87,358.79 434.88,358.76 435.81,359.25 437.67,358.84 438.03,357.99 439.43,358.50 439.34,359.78 440.04,362.22 440.52,362.10 440.94,362.67 440.78,363.24 440.72,363.73 441.44,364.32 442.61,365.92 442.43,367.36 442.48,367.44 441.01,367.30 439.99,368.01 438.82,367.75 438.74,369.48 437.08,368.50 435.70,367.52 435.39,367.51 435.24,368.17 434.19,367.25 434.33,366.76 432.92,366.52 432.33,365.88 "></polygon>
            </g>
            <g class="Syddanmark" id="Billund">
            <polygon id="p7" points="81.83,372.74 79.87,372.02 80.05,369.60 81.14,369.45 81.70,366.51 83.07,364.20 83.74,364.19 83.36,363.17 79.99,361.02 78.95,359.63 77.77,358.10 76.97,358.78 75.27,358.47 74.99,355.23 75.75,354.64 75.89,349.90 82.67,347.51 82.72,347.43 80.42,345.24 79.44,344.20 82.31,342.45 83.12,339.28 83.43,338.15 83.96,336.28 85.55,336.56 86.51,333.83 87.75,333.97 87.91,334.12 88.15,333.77 94.33,334.41 96.56,335.72 96.76,339.23 95.79,342.81 95.93,343.49 96.74,343.53 99.23,343.99 100.94,345.48 103.01,343.69 104.63,344.44 105.88,341.88 107.09,343.00 107.77,343.91 105.83,348.47 106.50,348.99 105.48,356.56 111.21,356.72 111.72,357.05 111.43,359.46 113.42,360.24 113.76,360.22 113.85,360.31 113.89,360.33 113.93,360.26 115.48,360.28 115.48,360.24 117.77,360.59 119.92,361.77 119.77,362.24 117.53,362.36 116.94,362.81 116.21,362.80 115.82,363.17 115.55,362.88 115.37,362.91 115.79,366.06 114.89,368.62 116.15,369.32 116.85,368.96 116.77,369.82 115.15,370.73 115.94,371.81 114.98,379.99 115.98,380.27 115.89,381.75 118.87,381.97 118.50,383.68 118.34,384.47 115.39,384.37 112.34,385.66 112.42,387.13 111.19,386.91 108.24,388.17 106.92,386.79 99.34,385.90 99.31,383.70 98.48,383.22 97.71,382.80 92.90,382.01 90.30,382.37 88.13,380.19 88.77,378.93 88.61,375.98 87.26,373.92 84.30,374.55 81.82,372.19 81.83,372.74 "></polygon>
            </g>
            <g class="Hovedstaden" id="Brøndby">
            <polygon id="p9" points="444.18,385.72 444.13,385.57 444.17,385.50 444.38,385.47 444.39,385.36 444.03,385.31 444.00,385.20 444.03,385.12 444.43,385.27 444.54,385.22 444.56,385.32 444.46,385.58 444.18,385.72 "></polygon>
            <polygon id="p10" points="441.20,384.64 440.49,384.76 440.45,384.46 440.98,384.37 443.09,384.43 444.28,384.71 444.44,384.80 444.46,384.85 444.43,384.86 444.43,384.93 444.42,384.94 443.88,384.97 443.62,384.82 441.20,384.64 "></polygon>
            <polygon id="p11" points="444.24,384.27 444.09,384.20 443.30,384.18 440.94,384.01 440.39,384.03 440.34,383.69 439.24,381.76 436.49,376.88 436.34,376.42 437.13,376.17 437.43,376.17 439.45,376.04 440.72,376.57 441.30,376.25 441.86,374.65 442.46,374.49 444.27,374.13 444.29,374.38 444.71,374.37 444.86,375.30 445.29,375.33 445.31,375.38 445.58,375.37 445.49,376.75 445.98,378.32 443.80,378.81 442.70,379.42 442.90,381.05 444.23,383.06 443.85,383.22 444.24,384.27 "></polygon>
            </g>
            <g class="Nordjylland" id="Brønderslev">
            <polygon id="p12" points="176.39,87.96 178.29,86.23 178.27,84.96 178.39,82.23 177.13,79.73 178.32,79.72 179.20,78.25 182.49,78.05 183.15,74.04 185.25,75.11 186.31,74.33 186.67,73.31 189.43,74.00 190.06,75.82 192.67,76.86 194.09,77.37 193.75,75.68 194.57,75.60 194.63,74.68 197.76,75.02 201.42,76.99 202.82,77.07 204.39,78.42 206.77,78.21 206.98,76.50 206.26,76.35 206.87,75.29 209.86,76.68 211.02,75.28 211.66,75.97 214.44,75.75 214.86,75.75 215.29,76.06 215.62,76.15 215.60,76.25 215.83,76.20 215.90,76.36 216.24,76.29 216.27,76.23 216.70,76.14 216.88,75.76 217.27,74.53 219.20,74.29 219.79,74.92 219.02,76.06 219.26,77.50 220.46,77.99 220.53,78.80 220.97,81.10 222.24,81.98 221.27,83.65 221.49,90.26 224.09,90.02 224.27,90.56 226.04,89.77 225.91,88.99 228.86,86.80 231.85,87.65 231.82,85.91 232.46,85.09 234.41,86.94 236.67,87.83 237.65,87.30 238.33,89.13 236.68,91.15 237.51,92.25 238.35,93.18 238.39,93.19 241.44,95.81 240.62,97.54 242.17,100.18 242.06,101.08 240.64,101.71 241.30,102.68 243.02,104.18 244.23,104.38 244.15,104.59 243.84,105.07 243.78,105.23 243.66,105.47 243.54,105.64 243.11,106.45 243.06,106.66 242.97,106.83 242.82,107.07 242.81,107.19 242.74,107.35 242.66,107.39 242.45,107.84 242.61,107.94 242.55,108.01 242.48,108.06 242.39,107.98 242.25,108.23 242.18,108.50 242.15,108.65 242.18,108.75 242.66,108.71 242.80,108.85 242.79,108.91 242.63,108.83 242.56,108.97 242.58,109.09 242.57,109.12 242.59,109.13 242.62,109.23 242.72,109.26 242.65,109.33 242.62,109.35 242.59,109.39 242.32,109.67 242.00,109.75 241.90,109.70 242.25,109.03 242.02,108.99 241.86,109.19 241.70,109.55 241.49,110.08 241.38,110.33 241.36,110.66 241.23,110.98 241.19,111.15 241.02,111.51 240.88,112.11 240.73,112.43 240.72,112.59 240.70,112.69 240.56,113.18 240.36,113.19 240.28,113.22 240.20,113.39 240.20,113.49 240.26,113.58 240.16,113.81 240.07,113.98 240.06,114.54 240.58,114.70 240.50,114.78 240.01,114.62 239.95,115.13 239.90,115.38 239.80,115.55 239.79,115.67 239.66,116.25 239.62,116.48 239.53,116.61 239.30,117.53 239.20,117.90 238.94,119.05 236.41,118.95 233.95,122.32 233.38,122.18 232.84,120.15 233.64,116.98 232.62,117.21 231.05,115.55 222.09,115.45 220.10,115.26 219.64,115.16 216.55,114.08 213.54,109.99 212.28,109.39 211.96,109.25 211.08,108.13 210.12,107.48 209.81,107.70 209.55,107.68 208.34,107.25 207.88,107.96 205.10,103.68 202.32,100.83 201.94,100.26 198.52,99.90 199.18,99.15 194.52,95.93 193.69,96.60 194.10,95.65 192.90,95.89 193.40,94.31 190.62,93.68 190.07,94.10 189.24,93.49 189.05,94.68 183.73,94.96 183.69,95.99 177.39,93.75 173.91,92.27 174.67,89.56 176.39,87.96 "></polygon>
            </g>
            <g class="Hovedstaden" id="Dragør">
            <polygon id="p16" points="455.69,391.65 455.69,391.60 458.64,390.66 461.17,391.25 462.23,386.39 463.24,386.61 463.24,385.44 467.03,385.81 466.96,386.05 466.99,386.20 467.15,386.75 467.31,387.73 467.45,387.92 467.59,387.98 467.46,388.05 467.46,388.08 467.47,388.08 467.49,388.11 467.59,388.11 467.60,388.18 467.70,388.17 467.85,388.18 467.93,388.14 468.05,388.20 467.97,388.29 468.02,388.33 468.20,388.38 468.17,388.50 468.13,388.47 468.08,388.45 467.88,388.44 467.69,388.71 467.91,388.86 468.01,388.99 468.01,389.03 467.83,389.13 467.67,389.11 467.53,389.18 467.44,389.28 467.43,389.27 467.40,389.30 467.29,389.35 466.90,389.87 466.41,390.20 465.70,390.45 465.28,390.46 465.13,390.60 464.45,391.00 464.05,391.07 463.76,391.02 463.31,391.16 463.20,391.18 463.15,391.38 463.03,391.46 462.92,391.42 462.83,391.54 462.61,391.95 462.46,392.10 462.07,392.75 461.94,392.93 461.80,393.09 461.42,393.29 461.25,393.40 461.03,393.50 461.08,393.58 461.03,393.74 460.87,393.71 460.81,393.76 460.63,393.86 460.59,393.91 460.59,394.05 460.38,394.07 460.29,394.01 460.23,394.05 460.19,394.08 460.00,394.45 459.69,394.84 459.28,395.13 459.18,395.14 459.13,395.11 458.96,394.97 458.58,394.82 458.38,394.72 458.28,394.65 457.37,394.63 456.97,394.54 456.38,394.17 455.93,393.45 455.90,393.16 455.93,392.88 455.81,391.98 455.69,391.65 "></polygon>
            </g>
            <g class="Hovedstaden" id="Egedal">
            <polygon id="p17" points="430.00,357.58 429.18,358.64 427.49,358.24 426.70,358.87 426.97,359.57 426.35,360.42 426.91,360.56 428.82,359.72 430.62,359.89 431.37,360.25 431.64,361.68 433.12,361.36 433.19,361.66 433.36,362.87 432.41,363.13 432.06,363.86 432.33,365.88 432.92,366.52 434.33,366.76 434.19,367.25 433.51,368.95 432.73,368.96 431.10,370.14 428.90,369.26 425.22,368.03 425.08,367.49 424.20,366.38 422.88,365.93 421.44,364.18 420.84,363.49 422.63,362.90 422.26,361.92 422.72,361.77 422.14,360.71 420.87,359.88 419.73,360.00 419.24,360.65 416.70,360.55 415.70,360.28 414.97,358.84 412.85,357.87 411.33,356.80 410.87,355.54 411.05,353.75 411.96,353.52 412.29,352.57 413.54,348.94 412.74,348.13 412.46,346.97 415.22,347.13 417.04,346.04 418.90,347.73 420.74,345.99 423.83,347.62 426.16,348.07 429.60,347.40 432.61,348.76 433.69,350.61 432.85,352.12 430.47,352.28 431.73,353.40 430.85,355.13 429.48,354.77 430.00,357.58 "></polygon>
            </g>
            <g class="Syddanmark" id="Esbjerg">
            <polygon id="p18" points="66.07,447.86 66.10,447.30 66.01,447.30 65.65,447.51 65.60,447.49 65.33,447.46 65.23,447.29 65.19,446.98 65.13,446.80 64.72,446.73 64.53,446.81 64.34,446.65 64.29,446.38 64.31,446.24 64.90,445.90 64.89,445.55 64.97,445.24 64.92,445.07 65.07,444.74 65.31,444.81 65.43,445.28 65.52,445.29 65.86,445.17 65.94,445.14 65.68,444.81 65.59,444.53 65.45,443.62 65.40,442.50 65.34,442.07 65.37,441.66 65.47,441.23 65.77,440.46 65.87,440.03 64.29,439.49 61.32,441.25 60.60,442.20 58.64,442.97 58.42,443.53 57.88,444.90 56.97,446.80 56.70,446.67 56.46,446.91 56.17,447.14 55.74,447.31 54.96,447.20 54.86,447.20 54.85,447.22 54.79,447.23 54.42,447.19 54.01,446.92 53.83,446.72 53.38,446.22 53.18,445.82 53.12,445.57 53.06,444.89 53.22,444.26 53.68,443.54 54.05,443.20 54.20,442.80 54.31,442.64 54.75,442.18 55.34,441.84 56.15,441.68 57.11,441.94 58.07,442.15 58.56,441.83 59.01,441.90 59.10,442.13 60.19,441.70 60.81,440.98 64.24,438.95 65.86,439.51 65.98,439.50 66.17,438.85 66.39,438.46 66.50,438.14 66.46,437.91 66.95,436.78 66.35,436.55 66.36,436.33 66.52,436.08 66.62,436.07 66.62,436.30 67.00,436.44 67.06,436.22 67.06,436.09 67.01,435.90 66.98,435.60 66.99,435.27 67.01,435.20 67.05,435.14 67.43,435.10 67.51,435.14 67.73,435.29 67.75,435.28 67.75,435.23 67.75,435.11 67.39,434.72 66.96,434.76 66.47,434.35 66.38,433.83 66.40,433.65 66.58,433.52 67.50,433.83 67.58,433.79 67.50,433.72 67.08,433.58 66.34,433.27 66.17,433.15 66.15,432.89 66.01,432.73 65.88,432.65 65.96,432.24 65.73,432.25 65.69,432.21 65.63,431.78 65.63,431.56 65.60,431.36 65.42,430.72 65.36,430.43 65.21,430.21 65.13,429.96 65.09,429.43 65.07,429.31 65.06,429.10 64.94,428.56 64.91,428.37 64.94,428.21 64.77,427.90 64.71,427.74 64.61,427.25 64.68,427.15 64.64,426.93 64.42,426.85 64.22,425.98 64.09,425.83 64.05,425.75 63.96,425.45 64.04,425.23 64.01,424.67 63.93,424.49 63.67,424.57 63.52,424.26 63.47,424.14 63.46,424.07 63.34,423.66 63.48,423.52 63.50,423.44 63.27,423.37 63.24,422.97 63.32,422.80 63.20,422.25 63.12,422.06 63.12,421.87 62.88,421.64 62.79,421.16 62.70,420.83 62.39,419.81 62.33,419.54 62.39,419.32 62.29,418.33 62.03,417.95 60.75,417.23 60.60,417.27 60.46,417.32 60.29,417.06 59.58,416.59 59.21,416.05 58.60,415.57 58.06,415.29 57.69,415.18 56.88,414.84 56.42,414.61 56.18,414.42 56.04,414.14 55.64,413.66 55.61,413.50 55.31,413.37 55.23,413.19 54.80,413.11 54.69,413.02 54.33,412.90 54.25,412.94 54.23,413.08 54.09,413.02 54.02,412.99 54.04,413.07 53.62,413.28 53.51,413.21 53.37,413.20 52.49,413.69 51.99,413.73 51.30,413.69 50.26,413.49 50.14,413.36 49.92,413.30 49.20,413.02 48.90,412.79 48.91,412.79 48.89,412.78 48.47,413.00 47.27,412.54 47.25,412.55 47.19,412.59 46.87,413.38 46.73,413.75 46.65,413.80 46.09,413.54 45.92,413.45 45.63,413.32 45.54,413.33 45.51,413.39 45.09,413.22 44.15,412.68 44.29,412.56 44.98,412.61 45.08,411.82 44.89,411.80 44.84,412.13 44.09,412.06 44.07,412.03 44.05,412.04 44.03,412.01 44.02,412.02 43.69,411.81 43.57,412.11 43.55,412.49 43.08,412.09 43.09,411.70 43.24,411.39 43.64,411.06 42.94,410.09 42.39,410.41 42.29,410.18 42.73,409.94 42.07,408.72 41.63,408.97 41.39,408.83 41.22,408.92 41.21,408.91 41.09,409.00 40.94,408.82 40.90,408.55 40.91,408.54 41.73,407.99 41.61,407.95 41.29,407.52 40.84,407.14 40.22,406.50 38.43,404.41 38.03,403.47 38.00,403.41 37.94,403.35 37.56,402.88 37.09,402.62 36.52,402.06 35.87,401.55 35.54,401.20 35.43,401.16 34.95,400.37 34.83,400.25 34.27,399.40 34.09,399.19 33.74,398.71 33.55,398.57 33.05,398.10 32.86,397.84 32.16,397.22 31.71,396.68 31.69,396.64 31.59,396.46 31.37,395.91 31.28,395.75 31.21,395.58 31.10,395.42 30.56,394.64 29.83,393.82 29.47,393.33 29.32,392.98 29.29,392.68 29.38,392.06 29.66,391.62 30.24,391.37 30.54,391.25 31.01,391.14 31.41,390.86 31.49,390.71 31.52,390.69 32.74,390.41 33.39,388.69 35.15,388.32 35.77,387.55 36.86,388.98 36.91,388.91 41.08,392.03 40.30,394.71 42.97,396.09 44.13,395.45 45.31,396.69 45.47,395.66 44.11,393.64 46.86,392.16 47.07,391.26 46.50,390.75 46.06,390.24 47.01,389.72 48.63,390.29 49.19,389.91 50.98,389.42 54.62,389.87 56.76,393.04 55.74,393.52 57.28,394.17 57.94,395.52 59.75,396.89 59.65,398.69 60.14,399.85 61.47,398.96 66.10,396.58 68.36,397.28 67.48,396.30 68.05,396.14 69.24,396.34 72.55,400.02 73.14,399.21 73.23,398.26 73.72,397.95 73.54,397.73 74.18,397.48 74.45,396.31 76.22,395.39 77.55,396.72 77.59,396.88 80.12,398.37 81.61,400.30 81.38,401.21 84.10,402.01 85.71,402.76 85.94,403.62 85.44,403.67 85.79,405.18 85.93,405.04 86.62,405.87 86.49,406.14 87.00,406.38 86.96,407.10 86.49,407.18 87.06,407.69 86.81,407.83 86.80,407.85 86.51,407.77 86.42,408.03 86.19,410.16 83.58,413.53 84.66,413.96 84.56,416.21 86.84,416.42 86.65,421.48 87.69,421.03 87.59,421.55 88.35,421.62 90.28,421.71 90.71,421.09 92.02,421.44 92.36,422.80 90.72,423.74 91.24,424.29 93.71,424.21 93.26,426.39 91.07,426.36 89.74,429.32 87.34,429.07 88.67,432.89 89.95,433.55 89.20,436.83 88.49,437.24 89.96,437.87 92.71,441.02 90.77,444.77 93.89,445.79 93.28,451.05 93.64,455.28 90.60,454.01 87.99,453.99 86.00,454.51 80.88,453.49 78.17,451.97 77.73,452.07 72.33,450.95 65.86,451.94 65.64,451.34 65.61,451.19 65.68,450.90 65.83,450.82 66.11,450.95 66.13,450.49 65.93,450.34 65.79,450.25 65.75,450.15 65.76,449.99 65.89,449.70 65.98,449.63 66.07,449.57 66.45,449.46 66.47,449.26 66.37,449.18 66.02,449.30 65.71,449.15 65.55,449.01 65.38,448.26 65.45,448.14 65.55,448.20 65.82,448.29 66.12,448.09 66.29,448.05 66.29,447.93 66.07,447.86 "></polygon>
            </g>
            <g class="Syddanmark" id="Fanø">
            <polygon id="p19" points="47.45,432.97 47.43,432.95 47.48,432.75 47.52,432.49 47.61,432.30 47.85,432.00 47.99,431.95 48.03,431.95 48.04,432.03 48.09,432.11 48.10,432.15 48.12,432.24 48.12,432.31 48.05,432.44 48.00,432.61 47.93,432.74 47.91,432.77 47.86,432.79 47.79,432.78 47.70,432.75 47.61,432.71 47.60,432.71 47.60,432.88 47.58,432.91 47.51,432.97 47.45,432.97 "></polygon>
            <polygon id="p20" points="35.89,410.45 35.72,410.61 35.09,411.24 35.00,411.47 34.61,412.08 34.49,412.44 34.58,412.69 34.72,412.98 35.06,413.36 35.08,412.80 35.26,412.25 35.50,411.86 36.71,410.78 37.15,410.51 38.45,410.46 39.48,410.67 39.74,410.83 40.22,410.95 40.50,411.09 40.95,411.35 40.96,411.82 40.83,412.69 40.84,412.96 40.94,413.14 41.00,413.09 41.05,412.91 41.13,413.01 41.03,413.27 40.95,413.39 40.66,414.60 40.70,414.95 40.84,415.08 40.68,415.19 40.59,415.40 40.56,415.55 40.56,415.94 40.52,416.43 40.56,416.68 41.09,417.71 41.27,417.92 41.56,418.15 41.80,418.26 42.07,418.50 42.14,418.51 42.27,418.43 42.38,418.18 42.51,417.97 42.86,417.02 43.29,416.49 44.01,416.18 44.22,416.18 44.41,416.26 44.58,416.46 45.15,416.82 45.47,417.20 45.44,417.39 45.32,417.53 45.37,418.11 46.04,419.35 46.09,420.08 46.17,420.32 46.32,420.50 46.34,420.67 46.54,421.33 46.64,421.93 46.58,422.14 46.49,422.28 46.00,422.60 45.35,423.22 45.08,423.41 44.91,423.66 44.77,423.99 44.75,424.16 44.83,424.37 44.90,424.90 45.39,425.29 45.59,425.62 45.66,425.88 46.01,426.34 46.57,426.79 46.75,427.12 46.79,427.94 46.96,428.43 46.94,428.82 46.97,429.24 47.13,430.60 47.32,431.03 47.40,430.86 47.85,430.93 47.87,430.84 48.04,430.68 48.17,430.70 48.30,430.89 48.19,431.30 47.69,431.94 47.44,432.36 47.37,432.75 47.17,433.30 47.20,433.45 47.40,433.80 47.53,433.78 47.75,433.60 47.88,433.67 47.85,433.80 47.77,433.85 47.48,433.95 47.06,434.01 46.11,433.90 45.14,433.59 44.94,433.48 43.44,432.45 42.61,431.57 41.75,430.10 39.94,425.16 39.03,423.25 38.34,421.66 37.71,420.54 37.55,420.16 37.50,420.18 37.44,420.12 36.55,418.71 36.50,418.73 36.30,418.53 35.96,417.96 35.18,417.09 34.91,416.90 34.11,416.43 33.65,416.18 33.37,415.93 33.16,415.64 32.96,415.09 32.98,414.82 32.87,414.41 32.74,412.92 32.77,412.67 32.84,412.56 33.11,412.34 33.32,412.30 33.63,412.08 34.22,411.79 34.64,411.14 35.35,410.46 35.70,410.34 35.87,410.37 35.89,410.45 "></polygon>
            </g>
            <g class="Midtjylland" id="Favrskov">
            <polygon id="p21" points="180.41,242.30 180.33,244.08 180.35,244.24 181.84,243.68 183.67,243.89 184.39,244.98 186.74,245.59 187.97,246.71 189.32,246.36 190.90,246.00 190.80,244.17 193.80,244.96 193.87,246.52 195.14,248.42 195.64,248.01 196.82,248.26 198.42,246.17 200.39,245.04 202.53,245.28 202.79,244.70 203.56,244.89 203.97,244.62 204.49,246.39 207.00,246.00 209.51,248.20 210.56,247.42 210.62,246.58 213.06,247.60 212.99,246.36 214.10,244.29 214.61,244.73 215.71,244.78 215.82,244.48 219.62,244.60 219.66,244.95 220.59,244.75 221.35,246.12 221.91,246.25 222.97,247.22 223.56,247.75 222.79,248.98 223.14,249.40 222.20,250.37 221.22,250.44 219.88,249.12 218.53,249.93 218.37,251.69 217.75,252.36 216.25,252.63 216.82,253.73 216.06,253.94 216.07,255.77 216.52,256.11 218.45,256.49 219.17,256.24 219.79,256.62 218.80,257.68 218.86,259.22 216.62,261.34 216.23,260.72 216.44,260.19 215.02,259.43 213.23,260.01 212.54,264.46 212.98,264.81 213.47,267.35 212.67,267.83 212.19,270.22 212.70,270.74 212.58,271.51 212.25,274.56 212.86,275.20 211.65,276.13 210.46,275.36 208.36,274.88 207.74,273.90 207.27,274.01 207.11,274.82 206.64,274.29 206.55,274.37 204.64,274.56 204.37,273.68 202.84,273.28 203.37,274.98 202.25,274.84 200.26,275.99 200.28,276.35 199.71,276.24 200.00,277.66 199.09,278.00 197.00,276.29 196.78,276.65 194.14,276.06 193.21,277.33 191.67,276.68 191.09,277.04 190.57,276.59 189.81,276.44 188.81,277.99 188.02,279.21 185.88,280.91 185.67,280.86 183.69,280.29 180.54,281.04 179.09,280.55 178.98,279.83 178.43,279.64 177.80,279.57 177.31,280.55 175.89,279.40 177.17,278.42 176.79,276.84 178.31,276.26 177.66,275.36 178.69,272.89 178.03,271.95 176.95,272.25 178.99,270.72 179.12,270.09 178.49,270.09 178.42,269.19 177.07,267.72 175.84,268.18 175.47,267.45 175.73,266.81 178.08,266.20 177.47,264.26 177.66,262.41 176.35,262.89 175.94,262.75 175.97,262.64 175.20,262.66 175.33,262.40 174.84,261.78 174.46,261.82 172.79,262.25 171.96,261.72 170.53,260.68 169.02,260.71 167.88,261.05 167.58,259.12 165.99,258.26 167.07,255.99 170.03,256.20 172.25,255.52 172.26,254.66 170.54,253.27 170.16,252.13 170.59,251.14 170.12,250.57 170.16,248.97 168.87,247.42 169.00,247.09 169.52,247.14 173.02,245.81 171.58,244.38 172.53,244.59 174.26,243.13 173.65,242.63 174.10,241.28 174.64,241.18 174.61,240.21 175.52,240.21 175.81,239.22 175.03,237.78 175.66,237.79 177.38,235.57 177.61,234.05 178.79,235.12 181.81,234.80 182.66,234.05 184.42,234.46 184.98,237.00 184.24,238.47 184.22,240.15 183.78,240.37 182.83,241.01 182.29,240.61 182.49,239.82 180.78,239.43 179.79,240.57 180.41,242.30 "></polygon>
            </g>
            <g class="Sjælland" id="Faxe">
            <polygon id="p22" points="406.12,427.22 407.46,427.61 408.05,428.69 408.71,427.62 408.92,428.20 410.81,427.35 410.99,427.93 410.80,430.11 411.32,431.59 414.97,433.33 415.50,434.56 417.23,434.75 418.98,435.50 421.33,435.08 422.01,435.66 422.86,434.77 422.34,434.30 424.28,433.70 424.54,434.09 423.45,435.37 423.17,438.46 421.44,440.03 421.72,442.02 421.92,442.53 423.34,442.05 426.50,443.48 426.96,443.50 426.56,444.32 428.36,447.46 428.39,451.79 427.88,451.53 427.56,451.44 427.32,451.44 426.66,451.61 425.91,451.71 425.37,451.89 425.15,451.91 424.80,452.09 424.66,452.09 424.34,452.27 423.85,452.63 423.67,452.54 423.38,452.64 423.08,452.84 422.24,453.60 421.61,453.99 421.30,454.15 420.87,454.31 420.46,454.56 419.97,454.63 419.73,454.55 419.27,454.64 418.74,454.93 418.00,455.51 417.80,455.65 417.72,455.73 417.48,455.92 417.06,456.34 417.09,456.41 417.05,456.51 416.96,456.53 416.75,456.85 416.61,456.80 416.48,456.38 416.03,456.45 415.93,456.56 415.93,456.55 415.86,456.62 415.87,456.63 415.45,457.13 415.30,457.26 415.11,457.52 414.96,457.81 414.48,458.65 414.11,459.44 413.96,459.88 413.63,460.42 412.71,461.14 412.46,461.26 411.86,461.65 411.42,462.10 411.18,462.52 410.81,463.45 410.73,463.84 410.64,465.04 410.64,465.79 410.63,465.92 410.64,465.99 410.64,466.15 410.71,466.58 410.95,467.58 410.96,468.07 411.21,469.28 411.23,469.67 411.13,469.85 410.91,469.96 410.82,469.92 410.78,469.77 410.62,469.99 410.53,470.09 410.33,470.21 409.83,470.82 409.77,470.84 409.53,470.75 409.09,470.88 408.58,470.96 408.32,470.68 408.03,470.59 407.80,470.34 407.76,470.10 407.89,469.62 408.05,469.56 408.10,469.36 408.11,468.93 408.34,467.99 408.45,467.34 408.38,465.70 408.54,465.21 409.23,464.37 409.32,464.35 409.35,464.35 409.41,464.31 409.44,464.23 409.50,464.09 409.59,463.56 409.37,463.26 409.11,463.11 408.81,463.14 408.50,463.30 407.94,463.37 407.33,463.28 406.82,463.32 406.63,463.35 406.39,463.37 406.35,463.40 406.21,463.42 406.12,463.45 405.90,463.59 405.72,463.76 405.30,464.01 405.21,464.04 405.04,464.03 404.96,464.07 404.75,464.04 404.18,462.79 402.38,461.50 402.78,458.10 401.66,455.98 397.31,454.49 398.20,452.52 397.31,450.10 395.53,451.26 394.48,451.18 393.77,450.10 394.57,449.29 393.53,448.74 393.94,447.88 393.24,447.24 392.52,447.79 390.63,446.29 389.70,444.82 389.98,444.29 386.48,443.00 385.38,442.71 384.99,441.89 383.82,440.14 384.31,440.27 384.33,439.22 383.22,438.56 385.87,437.70 384.43,436.21 385.04,436.25 385.44,434.56 386.44,435.14 388.31,434.64 388.31,433.57 388.72,433.31 386.56,431.67 386.89,429.68 387.74,428.49 388.84,428.88 392.90,428.87 393.83,427.59 394.69,427.51 396.86,424.66 396.48,423.42 397.83,423.36 397.96,422.94 396.37,422.67 397.65,422.12 399.79,422.61 400.28,422.66 400.36,423.32 401.70,422.81 402.39,423.78 404.39,424.08 406.57,425.64 406.18,426.10 406.12,427.22 "></polygon>
            </g>
            <g class="Hovedstaden" id="Fredensborg">
            <polygon id="p23" points="436.75,320.17 436.83,318.25 437.76,314.71 438.96,312.43 441.07,313.01 442.95,315.24 443.80,314.36 447.43,313.93 447.04,316.25 447.99,318.19 449.06,317.05 450.22,317.86 450.80,317.85 450.87,317.42 452.02,317.47 452.22,319.36 453.44,318.60 454.45,318.69 454.86,319.14 454.78,319.27 454.55,319.93 454.51,320.24 454.69,320.16 454.77,320.13 454.43,320.64 454.18,321.63 453.71,322.72 453.66,322.92 453.58,323.14 453.60,323.15 453.57,323.23 453.58,323.28 453.18,324.03 453.15,324.12 453.08,324.32 453.00,324.69 452.71,325.31 452.71,325.42 452.82,325.51 452.79,325.76 452.78,325.77 452.74,325.78 452.68,325.84 452.43,325.79 452.38,325.79 452.38,325.81 452.36,325.82 452.37,326.00 452.54,326.05 452.54,326.04 452.56,326.05 452.56,326.06 452.61,326.08 452.79,326.00 452.87,325.85 452.97,325.89 452.80,326.19 452.74,326.25 452.71,326.32 452.69,326.39 452.71,326.41 452.70,326.53 452.60,326.51 452.42,326.53 452.39,326.56 452.38,326.56 452.37,326.58 452.28,326.67 452.22,326.88 452.14,327.27 452.23,327.65 452.34,327.68 452.31,327.81 452.26,327.98 451.97,328.03 451.83,328.29 451.82,328.81 451.74,329.03 451.85,329.71 451.98,330.01 452.08,330.08 452.28,330.58 451.51,330.90 451.11,332.01 449.42,332.56 448.62,332.57 448.52,332.28 447.92,332.63 447.33,332.79 446.36,333.17 446.32,333.88 445.24,333.61 445.05,334.11 443.73,333.61 442.30,334.99 441.25,334.03 440.85,334.84 439.76,335.33 438.90,333.59 438.17,333.61 437.31,333.15 439.50,331.00 437.03,328.08 437.44,327.81 436.71,325.73 435.61,325.45 434.61,324.19 436.37,323.29 435.79,320.73 436.75,320.17 "></polygon>
            </g>
            <g class="Syddanmark" id="Fredericia">
            <polygon id="p24" points="162.86,402.71 162.74,402.72 162.75,402.57 162.66,402.55 162.66,402.53 162.60,402.54 162.56,402.60 162.42,402.61 161.96,402.91 161.83,402.95 161.81,403.11 160.83,403.12 160.81,402.90 160.90,402.79 160.90,402.73 160.78,402.63 160.51,402.54 160.57,402.01 160.45,401.52 160.53,401.44 160.39,401.41 160.20,401.40 160.26,401.60 160.22,401.63 160.13,401.61 160.08,401.51 159.87,401.42 159.75,401.43 159.14,401.06 158.96,400.89 158.96,400.76 158.75,400.75 158.29,400.80 158.05,400.50 157.82,400.40 157.75,400.48 157.61,400.36 157.67,399.11 157.00,398.60 157.78,397.47 158.61,398.10 159.86,397.13 158.15,395.70 157.48,393.19 155.99,392.14 155.84,390.86 157.16,388.69 158.15,388.46 158.77,386.69 159.88,385.87 162.02,385.80 161.83,383.97 162.70,383.17 166.46,383.50 166.16,385.08 166.83,386.61 169.51,385.82 169.15,386.30 169.63,386.27 169.97,385.90 170.58,385.98 171.28,385.27 171.42,385.61 171.45,385.18 171.75,384.87 173.51,384.48 173.12,384.05 174.34,381.98 174.96,382.03 175.13,382.25 175.32,382.53 175.58,382.73 175.95,382.88 176.83,382.91 178.46,382.59 178.84,382.58 179.22,382.44 179.33,382.39 179.88,382.35 180.68,381.90 181.09,382.07 181.98,381.95 182.71,382.06 183.00,382.04 183.17,382.10 183.90,382.47 184.46,382.52 184.66,382.60 184.77,382.58 184.85,382.47 185.12,382.50 185.44,382.43 185.73,382.26 185.83,382.30 185.99,382.49 185.92,382.71 185.68,383.05 185.35,383.31 184.76,384.04 184.64,384.13 184.53,384.13 183.74,384.59 183.48,384.78 183.30,384.84 183.02,385.07 182.73,385.56 182.13,386.15 181.77,386.39 181.20,386.66 179.79,387.73 179.51,387.96 179.37,388.10 179.21,388.41 179.05,390.02 179.01,390.15 178.84,390.38 178.71,390.61 178.24,391.03 178.06,391.25 177.79,391.53 177.59,391.78 177.16,392.29 176.99,392.64 176.89,393.42 176.93,394.05 176.76,394.55 176.79,394.93 176.61,394.87 176.33,394.75 175.57,394.35 175.74,394.18 175.75,393.92 175.68,393.92 175.67,394.14 175.29,394.31 175.10,394.34 175.21,394.21 175.21,394.18 174.51,394.29 174.39,394.51 174.41,394.60 174.07,394.66 173.74,394.44 173.70,394.34 173.55,394.39 173.52,394.41 173.35,394.63 173.66,394.88 173.35,395.38 173.05,395.34 172.98,395.60 172.86,395.69 172.92,396.74 172.99,397.27 173.23,397.97 173.33,398.47 173.47,398.93 173.82,399.70 174.09,400.48 174.22,400.66 174.22,400.91 174.17,400.95 174.18,401.47 174.06,401.64 173.01,401.77 172.68,401.80 172.39,401.73 171.76,401.45 171.64,401.44 171.57,401.50 170.86,401.02 170.21,400.75 169.82,400.64 169.46,400.42 169.43,400.41 168.68,400.24 168.00,400.02 167.68,399.98 167.34,400.01 167.30,400.02 166.91,400.22 166.82,400.33 166.74,400.59 166.59,400.71 166.17,401.14 165.84,401.61 165.82,401.75 165.67,401.98 165.21,402.38 164.64,402.81 164.04,403.36 163.85,403.30 163.27,402.75 163.14,402.70 163.11,402.75 162.86,402.60 162.86,402.71 "></polygon>
            </g>

            <g class="Nordjylland" id="Frederikshavn">
            <polygon id="p26" points="258.14,54.14 257.92,53.97 257.60,53.66 257.64,53.55 257.75,53.50 257.95,53.57 258.15,53.76 258.19,54.00 258.14,54.14 "></polygon>
            <polygon id="p27" points="262.74,48.31 262.36,48.18 262.31,48.06 262.47,47.86 262.10,47.59 262.05,47.67 261.89,47.57 261.81,47.48 261.85,47.25 261.97,47.17 262.10,47.31 262.13,47.33 262.38,47.21 262.40,47.21 262.75,47.62 262.65,47.93 262.74,48.31 "></polygon>
            <polygon id="p28" points="260.77,46.87 260.40,46.74 260.14,46.47 260.17,46.35 260.26,46.33 260.41,46.42 260.51,46.68 260.77,46.52 260.53,46.18 260.35,46.12 260.01,45.60 260.03,45.41 260.06,45.38 260.16,45.47 260.31,45.77 260.39,45.97 260.68,46.13 261.04,46.24 261.13,46.31 261.23,46.35 261.54,46.21 261.72,46.26 261.43,46.42 261.37,46.83 261.00,46.68 260.88,46.72 260.77,46.87 "></polygon>
            <polygon id="p29" points="232.00,61.23 232.27,59.60 229.91,58.30 230.46,56.44 231.35,55.84 231.16,54.48 233.14,54.44 234.90,53.32 236.05,53.52 236.79,50.26 240.35,49.54 241.16,48.79 239.22,47.82 239.08,46.41 237.01,44.99 237.50,43.99 234.79,40.26 234.62,40.82 233.86,40.21 231.25,35.31 233.69,25.79 228.31,25.15 227.06,23.53 228.71,22.52 230.51,21.60 231.36,21.02 232.33,20.47 233.23,19.64 233.60,19.46 234.29,18.84 235.76,17.65 239.70,14.26 241.05,13.19 243.49,10.95 244.59,10.04 248.47,7.03 251.51,4.25 252.21,3.63 253.00,3.19 254.53,2.08 255.20,1.74 255.71,1.29 255.99,1.20 256.68,0.80 257.61,0.41 258.86,0.05 259.86,-0.19 260.97,-0.30 261.76,-0.31 262.57,-0.17 262.87,-0.05 263.81,0.59 264.73,1.06 264.57,1.13 264.16,1.52 263.91,1.81 263.84,2.03 263.58,2.24 263.20,2.52 263.12,2.67 262.88,2.77 261.84,3.57 261.40,3.89 260.88,4.41 260.50,5.01 260.37,5.32 259.57,6.03 259.36,5.95 259.21,5.55 258.85,5.54 258.77,5.62 258.24,6.02 258.73,6.34 258.31,6.45 258.26,6.44 257.73,6.24 257.71,6.25 256.85,6.97 256.69,6.97 256.59,7.03 255.10,8.40 253.74,9.81 252.28,11.44 250.77,13.34 248.88,15.90 246.81,18.99 246.22,19.93 245.07,21.93 244.32,23.48 243.92,24.49 243.63,25.40 243.42,25.76 243.36,25.96 243.29,26.16 243.23,26.43 242.94,27.46 242.82,28.24 242.77,28.29 242.75,28.38 242.74,28.45 242.77,28.52 242.58,29.61 242.49,30.92 242.55,31.07 242.65,32.19 242.66,32.29 243.32,35.15 244.05,37.18 244.19,37.42 244.50,38.06 244.54,38.31 244.74,38.82 244.86,38.92 245.50,39.81 247.09,42.16 247.70,42.91 248.55,43.81 248.70,43.91 248.86,43.83 248.92,43.90 248.93,44.04 248.86,44.25 248.97,44.44 249.96,45.51 250.12,45.63 250.12,45.62 250.40,45.85 250.40,45.95 250.18,46.01 250.23,46.19 250.28,46.31 250.33,46.38 250.84,46.31 250.86,46.37 250.81,46.63 250.35,46.93 250.42,47.24 251.65,48.57 251.83,48.86 251.97,49.20 252.15,49.20 252.53,49.55 252.39,49.77 252.67,50.08 253.18,50.58 253.21,50.49 253.25,50.35 253.51,50.56 253.41,50.71 253.48,50.82 253.66,50.83 253.68,50.95 253.71,51.20 253.49,51.33 253.68,51.65 253.90,51.51 254.18,52.16 254.07,52.49 254.31,52.93 254.39,53.19 254.37,53.39 254.45,53.59 254.56,53.76 254.61,53.91 255.12,54.25 255.43,53.97 255.67,53.98 256.10,54.46 256.10,54.48 255.59,55.20 255.91,55.45 255.55,55.86 254.83,55.10 254.53,55.45 255.25,56.26 255.17,56.51 254.29,55.87 253.95,56.16 253.88,56.59 254.60,56.75 254.58,56.98 254.23,57.06 253.57,56.96 253.49,57.48 252.87,57.47 252.69,57.78 252.61,58.01 252.62,58.12 252.80,58.19 252.84,59.12 252.95,59.46 252.80,59.93 252.84,60.04 252.76,60.15 252.70,60.16 252.56,60.30 252.45,60.52 252.46,60.65 252.44,60.68 252.46,60.71 252.47,60.90 252.56,61.04 252.50,61.17 252.47,61.19 252.47,61.23 252.44,61.28 252.48,61.80 252.49,62.02 252.49,62.12 252.30,62.22 252.23,62.38 252.12,62.99 252.02,63.27 251.94,63.73 251.83,64.24 251.66,64.54 251.63,64.92 251.56,65.08 251.56,65.28 251.60,65.49 251.54,65.64 251.52,65.77 251.56,65.82 251.57,65.91 251.56,66.05 251.50,66.16 251.53,66.27 251.52,66.53 251.56,66.90 251.50,66.93 251.52,67.03 251.53,67.18 251.58,67.33 251.54,67.62 251.59,67.70 251.60,67.85 251.57,68.04 251.65,68.91 251.73,69.13 251.74,69.26 251.74,69.77 251.77,69.89 251.77,70.12 251.78,70.24 251.82,70.38 251.84,70.56 251.83,70.70 251.89,71.08 251.90,71.23 251.93,71.34 252.00,71.46 252.07,71.89 252.09,72.23 252.18,72.46 252.25,73.06 252.36,73.47 252.52,73.92 252.66,74.15 252.72,74.38 252.80,74.51 252.82,74.56 253.01,74.69 253.12,74.77 253.06,74.89 253.14,75.03 253.19,75.13 253.37,75.20 253.37,75.22 253.49,75.25 252.90,75.78 252.82,75.98 252.74,76.68 252.78,76.90 252.88,77.62 253.42,80.21 253.61,81.44 253.92,82.93 254.29,84.24 254.56,85.87 254.61,86.09 254.97,88.98 255.02,90.15 254.91,91.70 254.82,93.36 254.72,94.15 254.56,94.27 254.16,94.32 254.34,94.07 254.40,93.80 254.28,93.75 254.23,93.77 254.00,94.32 254.01,94.41 253.99,94.63 253.87,94.80 253.68,94.90 253.44,95.29 252.75,96.12 252.32,96.30 252.16,96.50 251.84,96.66 251.60,96.88 251.61,96.95 251.39,97.26 251.24,97.36 251.19,97.36 251.06,97.29 250.90,97.28 250.73,97.36 250.70,97.36 250.58,97.44 250.40,97.53 250.30,97.63 250.40,97.66 250.32,97.79 250.08,97.70 249.94,97.75 249.88,97.79 249.87,97.88 249.76,97.91 249.73,97.98 249.68,98.01 249.58,98.03 249.60,98.09 249.51,98.19 249.36,98.11 249.30,98.14 249.47,98.28 249.39,98.41 249.26,98.31 249.05,98.43 248.90,98.62 248.36,99.18 248.29,99.22 248.22,99.33 248.01,99.47 248.01,99.55 247.95,99.61 247.85,99.68 247.74,99.69 247.66,99.77 247.66,99.87 247.51,100.04 247.21,100.33 247.06,100.53 246.83,100.77 246.56,101.20 246.51,101.32 246.17,101.73 246.11,101.94 246.05,102.06 245.80,102.33 245.56,102.48 245.37,102.74 244.58,103.77 244.47,104.01 244.28,104.37 244.23,104.38 243.02,104.18 241.30,102.68 240.64,101.71 242.06,101.08 242.17,100.18 240.62,97.54 241.44,95.81 238.39,93.19 238.51,93.08 238.51,93.06 238.41,93.07 238.41,93.12 238.35,93.18 237.51,92.25 236.68,91.15 238.33,89.13 237.65,87.30 236.67,87.83 234.41,86.94 232.46,85.09 231.82,85.91 231.85,87.65 228.86,86.80 225.91,88.99 226.04,89.77 224.27,90.56 224.09,90.02 221.49,90.26 221.27,83.65 222.24,81.98 220.97,81.10 220.53,78.80 220.46,77.99 219.26,77.50 219.02,76.06 219.79,74.92 219.20,74.29 219.23,72.97 218.28,72.45 219.15,72.46 218.77,70.65 222.45,70.18 223.09,69.21 222.76,67.95 223.65,67.42 224.10,65.72 230.34,67.34 231.99,67.25 232.83,66.28 234.24,67.35 234.41,66.75 234.61,66.85 234.57,67.31 234.69,67.36 234.95,66.72 235.47,66.78 235.46,66.36 235.98,66.34 236.34,66.43 236.35,66.53 236.93,66.44 236.91,66.21 237.17,66.21 237.19,66.49 237.40,66.47 237.37,66.05 238.81,65.63 238.87,64.76 238.26,65.32 237.66,64.60 235.18,64.77 233.41,64.08 232.63,62.84 233.03,61.78 232.00,61.23 "></polygon>
            </g>
      </g>
</svg>